<svg xmlns="http://www.w3.org/2000/svg" viewBox="5188.5 5002.5 514 494" width="514" height="494" data-guides="{&quot;vertical&quot;:[],&quot;horizontal&quot;:[]}"><path fill="#4fb76b" stroke="none" fill-opacity="1" stroke-width="1" stroke-opacity="1" clip-rule="evenodd" fill-rule="evenodd" font-size-adjust="none" text-rendering="geometricprecision" id="tSvg59c7585cdf" title="Path 1" d="M 5602.5 5003.5 C 5606.833 5003.5 5611.167 5003.5 5615.5 5003.5C 5620.377 5006.20254 5624.877 5009.53588 5629 5013.5C 5633.193 5019.6472 5633.526 5025.9805 5630 5032.5C 5543.333 5184.5 5456.667 5336.5 5370 5488.5C 5367.604 5491.067 5365.104 5493.4 5362.5 5495.5C 5357.833 5495.5 5353.167 5495.5 5348.5 5495.5C 5345.402 5493.108 5342.069 5490.942 5338.5 5489C 5333.048 5483.972 5331.215 5477.806 5333 5470.5C 5345.773 5447.122 5358.94 5423.955 5372.5 5401C 5334.922 5387.722 5301.256 5368.056 5271.5 5342C 5240.2526 5313.608 5212.9193 5282.108 5189.5 5247.5C 5189.5 5244.167 5189.5 5240.833 5189.5 5237.5C 5215.5851 5198.232 5246.9184 5163.399 5283.5 5133C 5316.013 5106.743 5352.68 5088.4099 5393.5 5078C 5446.185 5066.5206 5497.019 5072.0206 5546 5094.5C 5562.371 5067.1097 5578.371 5039.443 5594 5011.5C 5596.074 5007.92315 5598.907 5005.25648 5602.5 5003.5ZM 5429.5 5116.5 C 5462.619 5114.297 5494.286 5119.964 5524.5 5133.5C 5516.253 5148.33 5507.753 5162.997 5499 5177.5C 5473.338 5155.682 5444.838 5151.182 5413.5 5164C 5378.41 5183.335 5362.577 5213.168 5366 5253.5C 5372.258 5284.767 5390.425 5305.933 5420.5 5317C 5412.207 5331.085 5404.04 5345.252 5396 5359.5C 5395.311 5360.357 5394.478 5361.023 5393.5 5361.5C 5355.508 5349.18 5321.841 5329.68 5292.5 5303C 5275.8601 5287.7 5260.6934 5271.2 5247 5253.5C 5242.3333 5246.167 5242.3333 5238.833 5247 5231.5C 5274.3111 5195.176 5307.478 5165.676 5346.5 5143C 5372.528 5128.6 5400.195 5119.767 5429.5 5116.5ZM 5445.5 5200.5 C 5458.64 5201.233 5468.974 5206.9 5476.5 5217.5C 5466.2 5236.295 5455.7 5254.961 5445 5273.5C 5444.255 5274.99 5443.088 5275.99 5441.5 5276.5C 5424.996 5273.491 5413.829 5264.158 5408 5248.5C 5405.725 5228.213 5413.558 5213.38 5431.5 5204C 5436.184 5202.347 5440.85 5201.181 5445.5 5200.5Z"/><path fill="#4fb76b" stroke="none" fill-opacity="1" stroke-width="1" stroke-opacity="1" clip-rule="evenodd" fill-rule="evenodd" font-size-adjust="none" text-rendering="geometricprecision" id="tSvg41231c07b0" title="Path 2" d="M 5701.5 5236.5 C 5701.5 5240.5 5701.5 5244.5 5701.5 5248.5C 5677.382 5284.135 5649.048 5316.301 5616.5 5345C 5581.841 5374.833 5542.175 5395.5 5497.5 5407C 5484.632 5409.815 5471.632 5411.648 5458.5 5412.5C 5466.488 5396.363 5475.154 5380.53 5484.5 5365C 5530.992 5352.93 5571.325 5330.263 5605.5 5297C 5619.073 5283.431 5631.906 5269.265 5644 5254.5C 5648.667 5246.5 5648.667 5238.5 5644 5230.5C 5628.584 5210.749 5611.417 5192.582 5592.5 5176C 5599.484 5163.677 5606.484 5151.343 5613.5 5139C 5614.167 5138.333 5614.833 5138.333 5615.5 5139C 5648.38 5168.031 5677.0470000000005 5200.531 5701.5 5236.5Z"/><defs/></svg>