<svg xmlns="http://www.w3.org/2000/svg" viewBox="5131.5 4953.5 513 514" width="513" height="514" data-guides="{&quot;vertical&quot;:[],&quot;horizontal&quot;:[]}"><path fill="#4fb76b" stroke="none" fill-opacity="1" stroke-width="1" stroke-opacity="1" clip-rule="evenodd" fill-rule="evenodd" font-size-adjust="none" text-rendering="geometricprecision" id="tSvg161e09870f9" title="Path 1" d="M 5640.5 4954.5 C 5641.5 4954.5 5642.5 4954.5 5643.5 4954.5C 5643.5 4955.166667 5643.5 4955.833333 5643.5 4956.5C 5641.821 4956.71481 5640.821 4956.04814 5640.5 4954.5Z"/><path fill="#4fb76b" stroke="none" fill-opacity="1" stroke-width="1" stroke-opacity="1" clip-rule="evenodd" fill-rule="evenodd" font-size-adjust="none" text-rendering="geometricprecision" id="tSvg2b52444cc7" title="Path 2" d="M 5369.5 5054.5 C 5420.31 5051.4524 5467.31 5063.286 5510.5 5090C 5556.289 5120.123 5594.456 5157.956 5625 5203.5C 5628.404 5209.579 5627.737 5215.246 5623 5220.5C 5595.958 5259.877 5563.125 5293.71 5524.5 5322C 5444.348 5376.19 5361.348 5380.856 5275.5 5336C 5223.2019 5304.702 5181.2019 5263.035 5149.5 5211C 5180.7959 5158.371 5222.7959 5116.371 5275.5 5085C 5304.972 5068.675 5336.306 5058.508 5369.5 5054.5ZM 5380.5 5094.5 C 5429.298 5094.582 5472.964 5109.415 5511.5 5139C 5535.706 5157.539 5556.872 5179.039 5575 5203.5C 5577.355 5210.367 5576.355 5216.701 5572 5222.5C 5547.477 5253.031 5518.644 5278.531 5485.5 5299C 5412.958 5338.344 5342.625 5334.677 5274.5 5288C 5248.113 5268.615 5224.6129 5246.115 5204 5220.5C 5200.6667 5213.833 5200.6667 5207.167 5204 5200.5C 5229.3063 5167.512 5259.806 5140.679 5295.5 5120C 5322.114 5105.291 5350.447 5096.791 5380.5 5094.5ZM 5383.5 5172.5 C 5409.71 5172.876 5423.21 5186.21 5424 5212.5C 5417.992 5234.092 5403.825 5243.592 5381.5 5241C 5360.695 5235.224 5351.528 5221.724 5354 5200.5C 5358.858 5185.806 5368.691 5176.473 5383.5 5172.5Z"/><path fill="#4fb76b" stroke="none" fill-opacity="1" stroke-width="1" stroke-opacity="1" clip-rule="evenodd" fill-rule="evenodd" font-size-adjust="none" text-rendering="geometricprecision" id="tSvg12b4a48d0ce" title="Path 3" d="M 5386.5 5131.5 C 5427.068 5133.567 5452.568 5154.234 5463 5193.5C 5467.048 5231.91 5451.881 5259.744 5417.5 5277C 5383.741 5288.383 5354.575 5281.216 5330 5255.5C 5310.0869999999995 5227.093 5308.754 5197.76 5326 5167.5C 5340.4619999999995 5145.854 5360.629 5133.854 5386.5 5131.5ZM 5383.5 5172.5 C 5368.691 5176.473 5358.858 5185.806 5354 5200.5C 5351.528 5221.724 5360.695 5235.224 5381.5 5241C 5403.825 5243.592 5417.992 5234.092 5424 5212.5C 5423.21 5186.21 5409.71 5172.876 5383.5 5172.5Z"/><path fill="#4fb76b" stroke="none" fill-opacity="1" stroke-width="1" stroke-opacity="1" clip-rule="evenodd" fill-rule="evenodd" font-size-adjust="none" text-rendering="geometricprecision" id="tSvg1372135e11d" title="Path 4" d="M 5132.5 5464.5 C 5133.338246 5464.842 5133.67158 5465.508 5133.5 5466.5C 5133.166667 5466.5 5132.833333 5466.5 5132.5 5466.5C 5132.5 5465.833 5132.5 5465.167 5132.5 5464.5Z"/><defs/></svg>