<svg width="151" height="31" viewBox="0 0 151 31" fill="none" xmlns="http://www.w3.org/2000/svg">
<path d="M15.22 30.48C13.06 30.48 11.0467 30.1333 9.18 29.44C7.34 28.72 5.74 27.7067 4.38 26.4C3.02 25.0933 1.95333 23.56 1.18 21.8C0.433333 20.04 0.06 18.1067 0.06 16C0.06 13.8933 0.433333 11.96 1.18 10.2C1.95333 8.44 3.02 6.90667 4.38 5.6C5.76667 4.29333 7.38 3.29333 9.22 2.6C11.06 1.88 13.0733 1.52 15.26 1.52C17.6867 1.52 19.8733 1.94667 21.82 2.8C23.7933 3.62667 25.4467 4.85333 26.78 6.48L22.62 10.32C21.66 9.22667 20.5933 8.41333 19.42 7.88C18.2467 7.32 16.9667 7.04 15.58 7.04C14.2733 7.04 13.0733 7.25333 11.98 7.68C10.8867 8.10666 9.94 8.72 9.14 9.52C8.34 10.32 7.71333 11.2667 7.26 12.36C6.83333 13.4533 6.62 14.6667 6.62 16C6.62 17.3333 6.83333 18.5467 7.26 19.64C7.71333 20.7333 8.34 21.68 9.14 22.48C9.94 23.28 10.8867 23.8933 11.98 24.32C13.0733 24.7467 14.2733 24.96 15.58 24.96C16.9667 24.96 18.2467 24.6933 19.42 24.16C20.5933 23.6 21.66 22.76 22.62 21.64L26.78 25.48C25.4467 27.1067 23.7933 28.3467 21.82 29.2C19.8733 30.0533 17.6733 30.48 15.22 30.48ZM40.2138 30.32C37.9204 30.32 35.8804 29.84 34.0938 28.88C32.3338 27.92 30.9338 26.6133 29.8938 24.96C28.8804 23.28 28.3738 21.3733 28.3738 19.24C28.3738 17.08 28.8804 15.1733 29.8938 13.52C30.9338 11.84 32.3338 10.5333 34.0938 9.6C35.8804 8.64 37.9204 8.16 40.2138 8.16C42.4804 8.16 44.5071 8.64 46.2938 9.6C48.0804 10.5333 49.4804 11.8267 50.4938 13.48C51.5071 15.1333 52.0138 17.0533 52.0138 19.24C52.0138 21.3733 51.5071 23.28 50.4938 24.96C49.4804 26.6133 48.0804 27.92 46.2938 28.88C44.5071 29.84 42.4804 30.32 40.2138 30.32ZM40.2138 25.2C41.2538 25.2 42.1871 24.96 43.0138 24.48C43.8404 24 44.4938 23.32 44.9738 22.44C45.4538 21.5333 45.6938 20.4667 45.6938 19.24C45.6938 17.9867 45.4538 16.92 44.9738 16.04C44.4938 15.16 43.8404 14.48 43.0138 14C42.1871 13.52 41.2538 13.28 40.2138 13.28C39.1738 13.28 38.2404 13.52 37.4138 14C36.5871 14.48 35.9204 15.16 35.4138 16.04C34.9338 16.92 34.6938 17.9867 34.6938 19.24C34.6938 20.4667 34.9338 21.5333 35.4138 22.44C35.9204 23.32 36.5871 24 37.4138 24.48C38.2404 24.96 39.1738 25.2 40.2138 25.2ZM69.2647 8.16C70.9714 8.16 72.4914 8.50667 73.8247 9.2C75.1847 9.86667 76.2514 10.9067 77.0247 12.32C77.798 13.7067 78.1847 15.4933 78.1847 17.68V30H71.9447V18.64C71.9447 16.9067 71.558 15.6267 70.7847 14.8C70.038 13.9733 68.9714 13.56 67.5847 13.56C66.598 13.56 65.7047 13.7733 64.9047 14.2C64.1314 14.6 63.518 15.2267 63.0647 16.08C62.638 16.9333 62.4247 18.0267 62.4247 19.36V30H56.1847V8.48H62.1447V14.44L61.0247 12.64C61.798 11.2 62.9047 10.0933 64.3447 9.32C65.7847 8.54667 67.4247 8.16 69.2647 8.16ZM92.6409 30.32C90.1076 30.32 88.1343 29.68 86.7209 28.4C85.3076 27.0933 84.6009 25.16 84.6009 22.6V3.72H90.8409V22.52C90.8409 23.4267 91.0809 24.1333 91.5609 24.64C92.0409 25.12 92.6943 25.36 93.5209 25.36C94.5076 25.36 95.3476 25.0933 96.0409 24.56L97.7209 28.96C97.0809 29.4133 96.3076 29.76 95.4009 30C94.5209 30.2133 93.6009 30.32 92.6409 30.32ZM81.2809 13.76V8.96H96.2009V13.76H81.2809ZM101.224 30V8.48H107.184V14.56L106.344 12.8C106.984 11.28 108.01 10.1333 109.424 9.36C110.837 8.56 112.557 8.16 114.584 8.16V13.92C114.317 13.8933 114.077 13.88 113.864 13.88C113.65 13.8533 113.424 13.84 113.184 13.84C111.477 13.84 110.09 14.3333 109.024 15.32C107.984 16.28 107.464 17.7867 107.464 19.84V30H101.224ZM128.378 30.32C126.084 30.32 124.044 29.84 122.258 28.88C120.498 27.92 119.098 26.6133 118.058 24.96C117.044 23.28 116.538 21.3733 116.538 19.24C116.538 17.08 117.044 15.1733 118.058 13.52C119.098 11.84 120.498 10.5333 122.258 9.6C124.044 8.64 126.084 8.16 128.378 8.16C130.644 8.16 132.671 8.64 134.458 9.6C136.244 10.5333 137.644 11.8267 138.658 13.48C139.671 15.1333 140.178 17.0533 140.178 19.24C140.178 21.3733 139.671 23.28 138.658 24.96C137.644 26.6133 136.244 27.92 134.458 28.88C132.671 29.84 130.644 30.32 128.378 30.32ZM128.378 25.2C129.418 25.2 130.351 24.96 131.178 24.48C132.004 24 132.658 23.32 133.138 22.44C133.618 21.5333 133.858 20.4667 133.858 19.24C133.858 17.9867 133.618 16.92 133.138 16.04C132.658 15.16 132.004 14.48 131.178 14C130.351 13.52 129.418 13.28 128.378 13.28C127.338 13.28 126.404 13.52 125.578 14C124.751 14.48 124.084 15.16 123.578 16.04C123.098 16.92 122.858 17.9867 122.858 19.24C122.858 20.4667 123.098 21.5333 123.578 22.44C124.084 23.32 124.751 24 125.578 24.48C126.404 24.96 127.338 25.2 128.378 25.2ZM144.349 30V0.319998H150.589V30H144.349Z" fill="white"/>
</svg>
