<?xml version="1.0" encoding="UTF-8"?>
<!DOCTYPE svg PUBLIC "-//W3C//DTD SVG 1.1//EN" "http://www.w3.org/Graphics/SVG/1.1/DTD/svg11.dtd">
<svg xmlns="http://www.w3.org/2000/svg" version="1.1" width="512px" height="512px" style="shape-rendering:geometricPrecision; text-rendering:geometricPrecision; image-rendering:optimizeQuality; fill-rule:evenodd; clip-rule:evenodd" xmlns:xlink="http://www.w3.org/1999/xlink">
<g><path style="opacity:1" fill="#929392" d="M 32.5,-0.5 C 119.5,-0.5 206.5,-0.5 293.5,-0.5C 317.719,5.8849 333.219,21.2182 340,45.5C 341.629,82.8 341.962,120.133 341,157.5C 336.297,169.961 327.797,173.461 315.5,168C 312.567,165.736 310.4,162.902 309,159.5C 308.667,124.5 308.333,89.5 308,54.5C 304.835,41.0043 296.335,33.5043 282.5,32C 237.833,31.3333 193.167,31.3333 148.5,32C 163.727,36.7421 178.727,42.0755 193.5,48C 202.479,54.4578 208.646,62.9578 212,73.5C 213.488,187.47 213.988,301.47 213.5,415.5C 236.502,415.667 259.502,415.5 282.5,415C 296.335,413.496 304.835,405.996 308,392.5C 308.333,357.5 308.667,322.5 309,287.5C 314.639,276.309 323.139,273.475 334.5,279C 337.106,280.938 338.939,283.438 340,286.5C 341.148,305.104 341.648,323.771 341.5,342.5C 341.629,362.202 341.129,381.869 340,401.5C 333.399,425.767 317.899,440.934 293.5,447C 266.835,447.5 240.169,447.667 213.5,447.5C 213.666,456.506 213.5,465.506 213,474.5C 209.616,494.044 198.449,506.377 179.5,511.5C 173.167,511.5 166.833,511.5 160.5,511.5C 114.571,496.135 68.5715,480.635 22.5,465C 10.859,458.201 3.19232,448.367 -0.5,435.5C -0.5,301.167 -0.5,166.833 -0.5,32.5C 4.83333,15.8333 15.8333,4.83333 32.5,-0.5 Z M 38.5,32.5 C 41.1873,32.3359 43.854,32.5026 46.5,33C 89.9818,47.2717 133.315,61.9383 176.5,77C 178.041,78.5793 179.208,80.4127 180,82.5C 180.667,211.833 180.667,341.167 180,470.5C 177.724,477.751 172.89,480.251 165.5,478C 122.018,463.728 78.6848,449.062 35.5,434C 34.7894,432.745 33.956,431.579 33,430.5C 31.3421,301.201 31.0088,171.868 32,42.5C 32.4352,37.9448 34.6018,34.6115 38.5,32.5 Z"/></g>
<g><path style="opacity:1" fill="#929392" d="M 511.5,217.5 C 511.5,221.5 511.5,225.5 511.5,229.5C 483.425,259.077 454.758,288.243 425.5,317C 416.778,321.236 408.945,320.069 402,313.5C 398.667,306.833 398.667,300.167 402,293.5C 419.833,275.667 437.667,257.833 455.5,240C 399.167,239.667 342.833,239.333 286.5,239C 276.968,233.748 274.135,225.915 278,215.5C 279.907,211.961 282.74,209.461 286.5,208C 342.833,207.667 399.167,207.333 455.5,207C 437.667,189.167 419.833,171.333 402,153.5C 398.667,146.833 398.667,140.167 402,133.5C 408.945,126.931 416.778,125.764 425.5,130C 454.758,158.757 483.425,187.923 511.5,217.5 Z"/></g>
</svg>
