<?xml version="1.0" encoding="UTF-8"?>
<!DOCTYPE svg PUBLIC "-//W3C//DTD SVG 1.1//EN" "http://www.w3.org/Graphics/SVG/1.1/DTD/svg11.dtd">
<svg xmlns="http://www.w3.org/2000/svg" version="1.1" width="512px" height="512px" style="shape-rendering:geometricPrecision; text-rendering:geometricPrecision; image-rendering:optimizeQuality; fill-rule:evenodd; clip-rule:evenodd" xmlns:xlink="http://www.w3.org/1999/xlink">
<g><path style="opacity:1" fill="#929392" d="M 194.5,-0.5 C 195.167,-0.5 195.833,-0.5 196.5,-0.5C 209.477,1.66111 214.977,9.32778 213,22.5C 206.364,32.4792 199.697,42.4792 193,52.5C 164.123,107.298 160.79,163.632 183,221.5C 217.879,295.483 276.379,334.817 358.5,339.5C 394.361,339.369 427.694,330.202 458.5,312C 468.777,305.389 478.777,298.389 488.5,291C 499.03,287.712 506.697,290.879 511.5,300.5C 511.5,304.5 511.5,308.5 511.5,312.5C 481.183,418.312 412.183,483.145 304.5,507C 289.777,509.494 275.11,510.994 260.5,511.5C 258.5,511.5 256.5,511.5 254.5,511.5C 167.863,507.936 98.6962,471.603 47,402.5C 19.9852,363.623 4.15182,320.623 -0.5,273.5C -0.5,258.5 -0.5,243.5 -0.5,228.5C 10.1316,141.366 52.465,74.5322 126.5,28C 147.996,15.4101 170.663,5.91014 194.5,-0.5 Z M 154.5,53.5 C 125.094,123.975 128.261,192.975 164,260.5C 208.455,332.918 273.455,370.918 359,374.5C 380.524,374.282 401.69,371.449 422.5,366C 435.851,361.887 448.851,357.22 461.5,352C 411.742,439.224 336.408,479.891 235.5,474C 158.959,463.51 101.459,425.01 63,358.5C 26.6921,287.337 26.3588,216.004 62,144.5C 83.7873,104.879 114.621,74.5453 154.5,53.5 Z"/></g>
</svg>
