<?xml version="1.0" encoding="UTF-8"?>
<!DOCTYPE svg PUBLIC "-//W3C//DTD SVG 1.1//EN" "http://www.w3.org/Graphics/SVG/1.1/DTD/svg11.dtd">
<svg xmlns="http://www.w3.org/2000/svg" version="1.1" width="256px" height="256px" style="shape-rendering:geometricPrecision; text-rendering:geometricPrecision; image-rendering:optimizeQuality; fill-rule:evenodd; clip-rule:evenodd" xmlns:xlink="http://www.w3.org/1999/xlink">
<g><path style="opacity:0.975" fill="#fefffe" d="M 120.5,-0.5 C 125.167,-0.5 129.833,-0.5 134.5,-0.5C 142.55,2.38949 147.717,8.05616 150,16.5C 150.5,45.8314 150.667,75.1648 150.5,104.5C 179.835,104.333 209.169,104.5 238.5,105C 246.944,107.283 252.611,112.45 255.5,120.5C 255.5,125.167 255.5,129.833 255.5,134.5C 252.611,142.55 246.944,147.717 238.5,150C 209.169,150.5 179.835,150.667 150.5,150.5C 150.667,179.835 150.5,209.169 150,238.5C 147.717,246.944 142.55,252.611 134.5,255.5C 129.833,255.5 125.167,255.5 120.5,255.5C 112.45,252.611 107.283,246.944 105,238.5C 104.5,209.169 104.333,179.835 104.5,150.5C 75.1648,150.667 45.8314,150.5 16.5,150C 8.05616,147.717 2.38949,142.55 -0.5,134.5C -0.5,129.833 -0.5,125.167 -0.5,120.5C 2.38949,112.45 8.05616,107.283 16.5,105C 45.8314,104.5 75.1648,104.333 104.5,104.5C 104.333,75.1648 104.5,45.8314 105,16.5C 107.283,8.05616 112.45,2.38949 120.5,-0.5 Z"/></g>
</svg>
