<?xml version="1.0" encoding="UTF-8"?>
<!DOCTYPE svg PUBLIC "-//W3C//DTD SVG 1.1//EN" "http://www.w3.org/Graphics/SVG/1.1/DTD/svg11.dtd">
<svg xmlns="http://www.w3.org/2000/svg" version="1.1" width="512px" height="512px" style="shape-rendering:geometricPrecision; text-rendering:geometricPrecision; image-rendering:optimizeQuality; fill-rule:evenodd; clip-rule:evenodd" xmlns:xlink="http://www.w3.org/1999/xlink">
<g><path style="opacity:1" fill="#929392" d="M 213.5,-0.5 C 241.5,-0.5 269.5,-0.5 297.5,-0.5C 327.795,9.89835 340.462,31.2317 335.5,63.5C 367.835,63.3334 400.168,63.5 432.5,64C 448.667,68.1667 458.833,78.3333 463,94.5C 463.667,118.167 463.667,141.833 463,165.5C 457.952,174.896 450.118,178.23 439.5,175.5C 434.683,273.827 429.85,372.16 425,470.5C 420.984,492.013 408.484,505.68 387.5,511.5C 299.5,511.5 211.5,511.5 123.5,511.5C 102.507,505.671 90.0072,492.005 86,470.5C 81.1505,372.16 76.3171,273.827 71.5,175.5C 60.8817,178.23 53.0483,174.896 48,165.5C 47.3333,141.833 47.3333,118.167 48,94.5C 52.1667,78.3333 62.3333,68.1667 78.5,64C 110.832,63.5 143.165,63.3334 175.5,63.5C 170.538,31.2317 183.205,9.89835 213.5,-0.5 Z M 223.5,31.5 C 246.544,31.0526 269.544,31.5526 292.5,33C 297,34.8333 300.167,38 302,42.5C 303.288,49.4369 303.788,56.4369 303.5,63.5C 271.5,63.5 239.5,63.5 207.5,63.5C 207.212,56.4369 207.712,49.4369 209,42.5C 211.821,36.0228 216.655,32.3561 223.5,31.5 Z M 87.5,95.5 C 199.5,95.3333 311.5,95.5 423.5,96C 428,96.5 430.5,99 431,103.5C 431.5,116.829 431.667,130.163 431.5,143.5C 314.167,143.5 196.833,143.5 79.5,143.5C 79.3334,130.163 79.5001,116.829 80,103.5C 80.6804,98.9895 83.1804,96.3228 87.5,95.5 Z M 104.5,175.5 C 205.167,175.5 305.833,175.5 406.5,175.5C 401.651,272.819 396.818,370.153 392,467.5C 389.542,474.314 384.709,478.147 377.5,479C 296.167,479.667 214.833,479.667 133.5,479C 126.291,478.147 121.458,474.314 119,467.5C 114.182,370.153 109.349,272.819 104.5,175.5 Z"/></g>
<g><path style="opacity:1" fill="#929392" d="M 169.5,207.5 C 179.36,205.35 186.527,208.683 191,217.5C 191.667,290.833 191.667,364.167 191,437.5C 188.193,444.487 183.027,447.82 175.5,447.5C 167.973,447.82 162.807,444.487 160,437.5C 159.333,364.167 159.333,290.833 160,217.5C 162.022,212.98 165.189,209.647 169.5,207.5 Z"/></g>
<g><path style="opacity:1" fill="#929392" d="M 249.5,207.5 C 259.36,205.35 266.527,208.683 271,217.5C 271.667,290.833 271.667,364.167 271,437.5C 268.193,444.487 263.027,447.82 255.5,447.5C 247.973,447.82 242.807,444.487 240,437.5C 239.333,364.167 239.333,290.833 240,217.5C 242.022,212.98 245.189,209.647 249.5,207.5 Z"/></g>
<g><path style="opacity:1" fill="#929392" d="M 329.5,207.5 C 339.36,205.35 346.527,208.683 351,217.5C 351.667,290.833 351.667,364.167 351,437.5C 348.193,444.487 343.027,447.82 335.5,447.5C 327.973,447.82 322.807,444.487 320,437.5C 319.333,364.167 319.333,290.833 320,217.5C 322.022,212.98 325.189,209.647 329.5,207.5 Z"/></g>
</svg>
